<?xml version="1.0" encoding="utf-8"?>
<!-- Generator: Adobe Illustrator 22.1.0, SVG Export Plug-In . SVG Version: 6.00 Build 0)  -->
<svg version="1.1" id="Layer_1" xmlns="http://www.w3.org/2000/svg" xmlns:xlink="http://www.w3.org/1999/xlink" x="0px" y="0px"
	 viewBox="0 0 100 112" style="enable-background:new 0 0 100 112;" xml:space="preserve">
<path d="M88.4,45.1c-4.4-12.4-17.9-19.8-33.6-19.8c-5.2,0-10.7,0.8-16.1,2.5c-1.7,0.5-3.3,1.2-4.8,1.9c8.1,7.2,15.5,13.9,17.8,16
	c0,0,0,0,0,0c4.4,4.5,9.7,9.5,14.9,14.6c4.4,0.4,7.8,3.1,7.8,6.4c0,2.7-2.3,5-5.5,6c-1.1,0.3-2.3,0.5-3.6,0.5c-5,0-9-2.9-9-6.5
	c0-1.1,0.4-2.1,1-2.9C53.1,60,48.9,56.2,45,52.6c0,0,0,0-0.1,0c-1.8-1.9-10.1-10.2-18.5-18.9c-13.9,9-21,23.6-16.4,36.6
	c5.8,16.5,28.1,24.2,49.8,17.3C81.5,80.6,94.3,61.6,88.4,45.1z M52.6,38.6c-3.5,0-6.4-2.1-6.4-4.6s2.9-4.6,6.4-4.6s6.4,2.1,6.4,4.6
	S56.1,38.6,52.6,38.6z M61.6,38.1c0-3.1,3.5-5.5,7.7-5.5s7.7,2.5,7.7,5.5s-3.4,5.6-7.7,5.6S61.6,41.2,61.6,38.1z M67.1,52.3
	c0-3.6,4-6.5,9-6.5c5,0,9.1,2.9,9.1,6.5c0,3.6-4.1,6.5-9.1,6.5C71.1,58.8,67.1,55.9,67.1,52.3z"/>
<path d="M67.8,72.2c1.4-0.3,2.6-0.8,3.6-1.5c1-0.7,1.6-1.5,2-2.4c-7.1-7.3-15.8-15.3-22.4-22C45.4,41.1,9.5,8.5,5.5,7.9
	c0,0-0.1,0-0.1,0c0,0-0.1,0-0.1,0C5.2,8,5.2,8,5.2,8C3.4,9.8,41.3,47.5,45.6,52C52.7,58.5,60.7,66,67.8,72.2z"/>
<path d="M89.7,87c-0.5-2.3-0.7-5.9-4.8-7.2c-0.5-0.1-0.9-0.1-1.4,0.1c-0.9-1.2-1.9-2.5-3.1-3.9l-3.7,3.6c1.8,1.4,3.3,2.5,4.7,3.5
	c-0.1,0.3-0.1,0.6-0.1,1c0,2.3,5.6,7.1,8.2,7.5c1.8,0.3,5.3,0.6,5.3,0.3C94.9,91.7,90.3,89.7,89.7,87z"/>
</svg>
